<svg width="900" height="208" viewBox="0 0 225 52" fill="none" xmlns="http://www.w3.org/2000/svg"><path d="M58 1.364h5.793v21.13h10.413v4.562H58V1.364z" fill="#fff"/><path fill-rule="evenodd" clip-rule="evenodd" d="M86.805 15.809c-5.721 0-9.731 1.653-9.731 6.035 0 3.955 2.867 5.609 6.26 5.594 2.939 0 4.585-1.148 5.656-2.656v2.266h5.045v-12.25c0-5.103-3.256-6.973-7.834-6.973-4.578 0-8.085 1.978-8.408 6.432h4.9c.216-1.617 1.144-2.657 3.185-2.657 2.357 0 3.04 1.22 3.04 3.45v.759h-2.113zm2.113 3.09v1.58c0 2.087-1.754 3.343-4.047 3.343-1.897 0-2.716-.903-2.716-2.267 0-2.007 1.754-2.657 4.757-2.657h2.006zm26.469-17.535h-9.149v25.692h5.757v-9.919h2.501l6.116 9.919h6.151l-6.762-10.922c3.004-.903 5.26-2.946 5.26-6.83V9.16c0-5.32-3.83-7.796-9.874-7.796zm4.218 8.121c0 2.484-1.466 3.704-4.362 3.704v-.008h-3.256V5.818h3.256c2.788 0 4.362.903 4.362 3.523v.144zM143.473 0h-5.441l-2.041 5.71h3.759L143.473 0zm-14.92 17.895v-.289c0-5.926 4.183-9.774 9.623-9.774 4.83 0 9.12 2.837 9.12 9.558v1.436h-13.489c.143 3.126 1.825 4.924 4.649 4.924 2.401 0 3.579-1.04 3.903-2.62h4.901c-.611 4.063-3.83 6.323-8.94 6.323-5.656 0-9.767-3.56-9.767-9.558zm13.698-2.266c-.18-2.838-1.61-4.202-4.075-4.202-2.328 0-3.895 1.545-4.29 4.202h8.365zm13.339 11.824h-5.153c.496 3.876 3.255 6.54 9.3 6.547 6.151 0 9.838-2.837 9.874-8.41V8.273h-5.153v2.8c-1.071-1.905-2.896-3.233-5.936-3.233-4.65 0-8.229 3.768-8.229 9.16v.253c0 5.565 3.615 8.98 8.157 8.98 2.753 0 4.973-1.653 6.008-3.487v2.837c0 2.945-1.574 4.598-4.721 4.598-2.645 0-3.824-1.075-4.147-2.728zm9.012-10.532v.252c0 3.198-1.897 5.14-4.614 5.14-2.573 0-4.398-1.942-4.398-5.067v-.29c0-3.089 1.61-5.175 4.506-5.175 2.824 0 4.506 1.942 4.506 5.14zM177.244.036c-1.646 0-2.933 1.22-2.933 2.837 0 1.617 1.287 2.837 2.933 2.837 1.681 0 2.968-1.22 2.968-2.837 0-1.617-1.287-2.837-2.968-2.837zm2.608 8.23h-5.153v18.79h5.153V8.266zm3.932 9.304v.289c0 5.854 4.254 9.594 9.838 9.594 5.62 0 9.875-3.776 9.875-9.702v-.289c0-5.854-4.226-9.63-9.839-9.63-5.62 0-9.874 3.848-9.874 9.738zm14.452-.036v.253c0 3.559-1.681 5.71-4.578 5.717-2.932 0-4.578-2.151-4.578-5.746v-.289c0-3.595 1.718-5.68 4.578-5.68 2.897 0 4.578 2.15 4.578 5.745z" fill="#fff"/><path d="M207.435 8.265h5.189v2.982c.927-1.87 2.968-3.415 6.08-3.415 3.687 0 6.296 2.23 6.296 7.255v11.969h-5.189V15.845c0-2.548-.999-3.775-3.291-3.775-2.221 0-3.903 1.364-3.903 4.129v10.85h-5.189V8.264h.007z" fill="#fff"/><path fill-rule="evenodd" clip-rule="evenodd" d="M63.89 36.962h-1.867L58 48.838h1.343l1.128-3.417h4.827l1.15 3.417h1.407L63.89 36.962zm1.027 7.307H60.86l2.026-6.112 2.032 6.113z" fill="#fff"/><path d="M68.89 45.647v-5.494h1.357v5.428c0 1.53.64 2.208 1.983 2.208 1.214 0 2.356-.816 2.356-2.376v-5.26h1.357v8.685h-1.357V47.46c-.395.816-1.343 1.53-2.715 1.53-1.703-.007-2.981-.955-2.981-3.344m8.325-5.493h1.48l2.535 7.286 2.507-7.286h1.408l-3.082 8.685h-1.73l-3.118-8.685z" fill="#fff"/><path fill-rule="evenodd" clip-rule="evenodd" d="M85.54 44.452v.13c0 2.675 1.717 4.402 4.145 4.409 1.932 0 3.354-.918 3.649-2.66h-1.358c-.18 1.013-.948 1.509-2.277 1.509-1.753 0-2.686-1.1-2.751-3.075h6.45v-.444c0-3.111-1.867-4.321-3.85-4.321-2.356 0-4.008 1.829-4.008 4.452zm4.008-3.3c1.408 0 2.328.713 2.457 2.505H86.99c.23-1.544 1.164-2.506 2.557-2.506z" fill="#fff"/><path d="M95.08 40.153h1.357v1.56c.538-.977 1.278-1.662 2.816-1.713v1.297c-1.717.08-2.816.634-2.816 2.776v4.765h-1.358v-8.685z" fill="#fff"/><path fill-rule="evenodd" clip-rule="evenodd" d="M101.415 49.333h-1.394c.23 1.465 1.343 2.674 3.886 2.667 2.392 0 4.08-1.231 4.095-3.752v-8.102h-1.358v1.399c-.496-.846-1.379-1.545-2.801-1.545-2.356 0-3.994 1.96-3.994 4.32v.117c0 2.39 1.652 4.117 3.893 4.117 1.243 0 2.406-.802 2.895-1.647v1.26c0 1.858-1.063 2.675-2.751 2.675-1.459 0-2.277-.51-2.471-1.509zm5.265-5.114v.116c0 1.946-1.207 3.075-2.794 3.068-1.444 0-2.637-1.13-2.637-3.024v-.131c0-1.83 1.013-3.104 2.716-3.104 1.666 0 2.715 1.13 2.715 3.075z" fill="#fff"/><path d="M110.171 40.153h1.358v1.377c.395-.816 1.343-1.53 2.751-1.53 1.767 0 3.009.976 3.009 3.505v5.333h-1.357V43.41c0-1.53-.64-2.208-2.012-2.208-1.257 0-2.391.816-2.391 2.375v5.268h-1.358v-8.692z" fill="#fff"/><path fill-rule="evenodd" clip-rule="evenodd" d="M118.891 44.452v.13c0 2.675 1.724 4.402 4.145 4.409 1.932 0 3.354-.918 3.649-2.66h-1.358c-.179 1.013-.948 1.509-2.277 1.509-1.752 0-2.686-1.1-2.751-3.075h6.45v-.444c0-3.111-1.867-4.321-3.85-4.321-2.356 0-4.008 1.829-4.008 4.452zm4.016-3.3c1.407 0 2.327.713 2.456 2.505h-5.014c.23-1.544 1.164-2.506 2.558-2.506z" fill="#fff"/><path fill="#fff" d="M128.38 43.621h3.505v1.297h-3.505z"/><path fill-rule="evenodd" clip-rule="evenodd" d="M137.732 36.962h-3.512V48.83h1.422v-5.165h1.803l3.484 5.166h1.587l-3.584-5.261c1.602-.313 2.895-1.275 2.895-3.235v-.066c0-2.375-1.853-3.307-4.095-3.307zm2.673 3.373c0 1.465-.906 2.193-2.572 2.193h-2.191v-4.4h2.191c1.587 0 2.572.531 2.572 2.142v.065z" fill="#fff"/><path d="M143.91 36h1.358v5.53c.395-.816 1.343-1.53 2.751-1.53 1.767 0 3.009.976 3.009 3.505v5.333h-1.357V43.41c0-1.53-.64-2.208-2.011-2.208-1.258 0-2.392.816-2.392 2.375v5.26h-1.358V36z" fill="#fff"/><path fill-rule="evenodd" clip-rule="evenodd" d="M157.429 36.27H156.2l-1.767 2.39h.963l1.393-1.247 1.394 1.246h.998l-1.752-2.39zm-4.835 8.298v-.13c0-2.61 1.782-4.438 4.21-4.438 2.42 0 4.209 1.807 4.209 4.415v.131c0 2.623-1.782 4.43-4.224 4.43-2.442.008-4.195-1.865-4.195-4.408zm7.011 0v-.116c0-2.011-1.099-3.308-2.801-3.308-1.717 0-2.802 1.297-2.802 3.286v.13c0 1.975 1.063 3.272 2.802 3.272 1.716.008 2.801-1.304 2.801-3.264z" fill="#fff"/><path d="M162.672 40.153h1.358v1.377c.395-.816 1.343-1.53 2.751-1.53 1.767 0 3.01.976 3.01 3.505v5.333h-1.358V43.41c0-1.53-.639-2.208-2.011-2.208-1.257 0-2.392.816-2.392 2.375v5.268h-1.358v-8.692z" fill="#fff"/><path fill-rule="evenodd" clip-rule="evenodd" d="M171.392 44.452v.13c0 2.675 1.724 4.402 4.145 4.409 1.932 0 3.355-.918 3.649-2.66h-1.357c-.18 1.013-.949 1.509-2.277 1.509-1.753 0-2.687-1.1-2.752-3.075h6.451v-.444c0-3.111-1.868-4.321-3.85-4.321-2.356 0-4.009 1.829-4.009 4.452zm4.016-3.3c1.408 0 2.327.713 2.456 2.505h-5.013c.23-1.544 1.163-2.506 2.557-2.506z" fill="#fff"/><path fill="#fff" d="M180.881 43.621h3.505v1.297h-3.505z"/><path fill-rule="evenodd" clip-rule="evenodd" d="M191.347 36.962h-1.867l-4.023 11.876h1.343l1.128-3.417h4.827l1.149 3.417h1.408l-3.965-11.876zm1.027 7.307h-4.058l2.026-6.112 2.032 6.113z" fill="#fff"/><path fill="#fff" d="M196.749 36h1.372v12.838h-1.372z"/><path fill-rule="evenodd" clip-rule="evenodd" d="M201.662 40.153h-1.357v11.701h1.357v-4.451c.489.867 1.487 1.58 2.895 1.58 2.356 0 3.893-1.82 3.893-4.48v-.131c0-2.703-1.652-4.365-3.893-4.365-1.243 0-2.406.765-2.895 1.61v-1.464zm2.751.998c1.444 0 2.636 1.093 2.636 3.286v.131c0 2.113-.919 3.272-2.621 3.272-1.667 0-2.816-1.05-2.816-3.272v-.13c0-2.223 1.214-3.287 2.801-3.287zm5.186 3.301v.13c0 2.675 1.717 4.402 4.145 4.409 1.932 0 3.355-.918 3.649-2.66h-1.358c-.179 1.013-.948 1.509-2.277 1.509-1.752 0-2.686-1.1-2.751-3.075h6.451v-.444c0-3.111-1.868-4.321-3.85-4.321-2.356 0-4.009 1.829-4.009 4.452zm4.009-3.3c1.407 0 2.327.713 2.456 2.505h-5.014c.23-1.544 1.164-2.506 2.558-2.506z" fill="#fff"/><path d="M218.506 46.164h1.329c.101 1.027.64 1.676 2.012 1.676 1.293 0 1.867-.452 1.867-1.377 0-.911-.668-1.21-1.997-1.465-2.226-.415-2.981-1.049-2.981-2.557 0-1.61 1.552-2.441 2.895-2.441 1.537 0 2.866.634 3.096 2.506h-1.307c-.194-.947-.719-1.362-1.803-1.362-.984 0-1.624.495-1.624 1.246 0 .78.424 1.093 1.997 1.377 1.767.335 3.01.728 3.01 2.572 0 1.574-1.063 2.637-3.146 2.637-2.033.008-3.261-1.034-3.348-2.812M48 25c0 13.259-10.749 24-24 24C10.741 49 0 38.259 0 25S10.749 1 24 1c13.259 0 24 10.741 24 24" fill="#fff"/><path d="M27.71 11.112h-2.3L20 20.407l2.286 1.338 4.275-7.335 8.68 14.887 2.292-1.324-9.822-16.86zM14.72 32.031h24.203v2.647H14.72z" fill="#009CDD"/><path d="M27.349 22.389a7.43 7.43 0 01-5.693 2.654 7.4 7.4 0 01-5.41-2.336h-2.359l-.093.166L7.682 33.34l2.285 1.338 4.442-7.602h-.015l.948-1.62a10.03 10.03 0 006.322 2.235c3.06 0 5.8-1.367 7.652-3.523l-1.967-1.78z" fill="#009CDD"/></svg>